<svg width="84" height="84" viewBox="0 0 84 84" fill="none" xmlns="http://www.w3.org/2000/svg">
<path d="M7 12C7 9.23858 9.23858 7 12 7V7C14.7614 7 17 9.23858 17 12V72C17 74.7614 14.7614 77 12 77V77C9.23858 77 7 74.7614 7 72V12Z" fill="url(#paint0_linear)"/>
<path d="M72 7C74.7614 7 77 9.23858 77 12V12C77 14.7614 74.7614 17 72 17L12 17C9.23858 17 7 14.7614 7 12V12C7 9.23857 9.23858 7 12 7L72 7Z" fill="#5DA1FF"/>
<path d="M12 67C14.7614 67 17 69.2386 17 72V72C17 74.7614 14.7614 77 12 77V77C9.23858 77 7 74.7614 7 72V72C7 69.2386 9.23858 67 12 67V67Z" fill="#FF644C"/>
<path d="M72 67L72 77L12 77L12 67L72 67Z" fill="#FF644C"/>
<path d="M75.5398 68.4687C77.4924 70.4213 77.4924 73.5871 75.5398 75.5397V75.5397C73.5871 77.4924 70.4213 77.4924 68.4687 75.5397L9.53555 16.6066C7.58293 14.654 7.58292 11.4882 9.53555 9.53554V9.53554C11.4882 7.58292 14.654 7.58292 16.6066 9.53554L75.5398 68.4687Z" fill="#5DA1FF"/>
<path d="M84 12C84 18.6274 78.6274 24 72 24C65.3726 24 60 18.6274 60 12C60 5.37258 65.3726 -1.57973e-06 72 -1.57973e-06C78.6274 -1.57973e-06 84 5.37258 84 12Z" fill="#FF644C"/>
<defs>
<linearGradient id="paint0_linear" x1="12" y1="7" x2="12" y2="77" gradientUnits="userSpaceOnUse">
<stop offset="0.142376" stop-color="#5DA1FF"/>
<stop offset="0.859375" stop-color="#FF644C"/>
</linearGradient>
</defs>
</svg>
